<svg xmlns="http://www.w3.org/2000/svg" viewBox="0 0 6.2634 3.668"><path fill="#E8710A" d="M.5356948.539065c-.71425.71572-.71425 1.8741 0 2.5898h.625v-.625c-.37043-.36999-.37094-.97037-.0019532-1.3418v-.62305zm4.5703 0v.62305c.896.896-.45361 2.2379-1.3496 1.3418h-.625v.625c.716.7166 1.8772.71981 2.5938.00391.7168-.716.71785-1.877.00195-2.5938z"/><path fill="#F9AB00" d="m.5362248.538275.6218.6244a.9498.9498 0 0 1 1.344 0l.4525-.7752-.0265-.0212c-.7294-.5442-1.7477-.471-2.3918.172zm1.9659 1.9685c-.371.3715-.9704.3688-1.3415-.0027l-.6244.6245c.6426.637 1.6538.7127 2.3813.1746l.029-.0238m.1853-2.741c-.7142.7156-.7142 1.8744 0 2.5902l.6244-.6245c-.896-.896.4533-2.2374 1.3493-1.3414l.6218-.6244c-.7163-.7177-1.8792-.7177-2.5955 0z"/></svg>