<svg xmlns="http://www.w3.org/2000/svg" viewBox="0 0 100 100"><path d="M0 0h100v100H0z"/><g fill="none" fill-rule="evenodd"><path fill="#000" d="M34.54 16.184h30.92v41.742H34.54z"/><g fill-rule="nonzero"><path fill="#04FF8E" d="M28.357 13.302h6.184v47.926h-6.184z"/><path fill="#8E2EFF" d="M65.46 25.67h6.184v35.558H65.46z"/><path fill="#00C5FF" d="M28.356 58.136h43.288v6.184H28.356z"/><path fill="#FFF152" d="M28.356 10.21h24.736v6.184H28.356z"/><path fill="#551C99" d="M65.46 34.946V25.67l6.184 3.092"/></g><path fill="#999131" d="m53.092 10.21 3.092 6.184h-9.276"/></g><path fill="#FFF" d="M28.764 79.68c-1.016-.965-2.236-1.22-3.15-1.22-2.235 0-3.709 1.322-3.709 4.065 0 1.779.915 3.963 3.709 3.963.711 0 1.88-.152 2.642-.711v-1.778H24.75v-3.05h6.758v6.148c-.864 1.778-3.252 2.693-5.945 2.693-5.436 0-7.52-3.658-7.52-7.266 0-3.607 2.389-7.316 7.571-7.316 1.93 0 3.607.406 5.436 2.235zm4.623 9.755v-13.82h3.862v13.82zm10.212-3.76v3.71h-3.912v-13.77h6.707c3.709 0 5.538 2.338 5.538 5.03 0 2.846-1.83 5.03-5.538 5.03zm0-3.302h2.795c1.067 0 1.626-.813 1.626-1.677 0-.914-.56-1.727-1.626-1.727h-2.795zm18.646 7.062v-5.233h-4.979v5.233h-3.912v-13.82h3.912v5.234h4.98v-5.234h3.86v13.82zm12.295-9.094 2.998-4.726h4.42v.153l-5.487 8.13v5.486h-3.912v-5.487l-5.233-8.13v-.152h4.42z"/><path fill="#FF5B5B" d="M65.46 22.578v-6.184h-6.184V10.21h-6.184v18.552h18.552v-6.184"/></svg>