<svg xmlns="http://www.w3.org/2000/svg" xml:space="preserve" viewBox="0 0 304.98 304.98"><defs><clipPath id="a"><path d="M0 250h1023V0H0z"/></clipPath></defs><g clip-path="url(#a)" transform="matrix(1.25 0 0 -1.25 -1.3128 308.74)"><path fill="#FFF" d="M245.03 125c0-67.374-54.618-121.99-121.99-121.99S1.05 57.628 1.05 125c0 67.375 54.618 121.99 121.99 121.99S245.03 192.373 245.03 125"/><path fill="#E60023" d="M123.04 246.99C55.666 246.99 1.05 192.372 1.05 125c0-51.682 32.155-95.863 77.535-113.64-1.066 9.652-2.03 24.496.423 35.033 2.217 9.521 14.305 60.638 14.305 60.638s-3.649 7.308-3.649 18.112c0 16.963 9.832 29.627 22.074 29.627 10.408 0 15.435-7.814 15.435-17.184 0-10.467-6.664-26.116-10.103-40.618-2.874-12.142 6.089-22.044 18.065-22.044 21.682 0 38.349 22.862 38.349 55.863 0 29.209-20.988 49.631-50.957 49.631-34.711 0-55.085-26.035-55.085-52.941 0-10.485 4.039-21.728 9.079-27.84.997-1.208 1.143-2.266.846-3.499-.926-3.853-2.984-12.139-3.388-13.835-.532-2.233-1.768-2.707-4.08-1.631-15.236 7.092-24.762 29.368-24.762 47.26 0 38.482 27.96 73.823 80.605 73.823 42.319 0 75.206-30.156 75.206-70.457 0-42.043-26.509-75.879-63.303-75.879-12.362 0-23.983 6.422-27.961 14.008 0 0-6.117-23.292-7.6-29C99.33 29.831 91.895 16.549 86.922 8.446c11.414-3.534 23.544-5.44 36.12-5.44 67.375 0 121.99 54.618 121.99 121.99s-54.618 121.99-121.99 121.99"/></g></svg>